<svg version="1.1" xmlns="http://www.w3.org/2000/svg" xmlns:xlink="http://www.w3.org/1999/xlink" x="0px" y="0px" viewBox="0 0 1000 1000" enable-background="new 0 0 1000 1000" xml:space="preserve">
<metadata> Svg Vector Icons : http://www.onlinewebfonts.com/icon </metadata>
<g><path d="M544.8,945.5c-15.4-0.8-30.4-2.1-44.6-3.9c-12.3-1.8-23.4,7.1-24.9,19.4c-1.5,12.2,7.1,
23.4,19.4,24.9c15.2,1.9,31.3,3.3,47.7,4.2c0.4,0,0.8,0,1.2,0c11.8,0,21.6-9.2,22.2-21.1C566.6,
956.6,557.1,946.1,544.8,945.5z M727.3,499.9c3.6,2.1,7.5,3.1,11.3,3.1c7.6,0,15.1-3.9,
19.2-10.9c6.6-11.3,15-22.9,24.9-34.7c7.9-9.4,6.7-23.5-2.7-31.4c-9.4-7.9-23.5-6.7-31.4,2.8c-11.4,
13.6-21.2,27.3-29.1,40.6C713.2,480,716.7,493.6,727.3,499.9z M414.8,
922.4c-14.2-5.1-27-11-38.3-17.6c-10.6-6.3-24.3-2.7-30.5,7.9c-6.2,10.6-2.7,24.3,7.9,30.5c13.6,8,29,15.1,
45.8,21.1c2.5,0.9,5,1.3,7.5,1.3c9.1,0,17.7-5.6,21-14.8C432.4,939.4,426.4,926.6,414.8,922.4z M321.3,
834.9c-0.2-12.1-10.1-22-22.3-22c-12.3,0-22.3,10-22.3,22.3c0,2.1,0.3,13.5,6.2,29.3c3.3,9,11.9,14.6,
20.9,14.6c2.6,0,5.2-0.5,7.7-1.4c11.5-4.3,17.4-17.1,13.2-28.6C321.7,841,321.4,835.4,321.3,834.9z M856.1,332.4c-12.4,8.9-25.2,18.6-38,29c-9.5,7.8-11,21.8-3.2,31.4c4.4,5.4,10.8,8.2,17.3,8.2c4.9,0,9.9-1.6,14.1-5c12-9.8,24.1-18.9,35.8-27.3c10-7.2,12.3-21.1,5.1-31.1C880.1,327.5,866.2,325.2,856.1,332.4z M859.3,776.1c-12.1,2.5-19.8,14.3-17.3,26.4c1.5,7.2,2.3,14.3,2.3,21c0,5.5-0.5,11-1.5,16.2c-2.4,12.1,5.5,23.8,17.7,26.1c1.4,0.3,2.8,0.4,4.2,0.4c10.5,0,19.8-7.4,21.9-18c1.6-8.1,2.4-16.3,2.4-24.7c0-9.8-1.1-19.9-3.2-30.1C883.2,781.4,871.3,773.7,859.3,776.1z M987.5,278.9c-5.7-11-19.1-15.3-30-9.6c0,0-7.6,3.9-20.3,11.1c-10.7,6.1-14.4,19.7-8.3,30.4c4.1,7.2,11.6,11.2,19.4,11.2c3.7,0,7.5-0.9,11-2.9c11.4-6.5,18.4-10.1,18.6-10.2C988.8,303.3,993.2,289.9,987.5,278.9z M840.6,702.1c-9.4-12.4-20.3-24.8-32.3-37c-8.6-8.8-22.7-8.9-31.5-0.2c-8.8,8.6-8.9,22.8-0.2,31.5c10.7,10.9,20.4,21.9,28.7,32.8c4.4,5.7,11,8.8,17.7,8.8c4.7,0,9.5-1.5,13.5-4.6C846.2,725.8,848.1,711.8,840.6,702.1z M679.3,940.7c-14.2,2-29.1,3.5-44.4,4.5c-12.3,0.8-21.6,11.4-20.8,23.7c0.8,11.8,10.6,20.9,22.2,20.9c0.5,0,1,0,1.5,0c16.4-1.1,32.5-2.7,47.8-4.9c12.2-1.7,20.7-13,18.9-25.2C702.8,947.4,691.5,938.9,679.3,940.7z M800,899.5c-10.5,7.3-22.8,13.8-36.6,19.5c-11.4,4.7-16.8,17.7-12.1,29.1c3.5,8.6,11.9,13.8,20.6,13.8c2.8,0,5.7-0.5,8.5-1.7c16.7-6.9,31.9-15,45-24.1c10.1-7.1,12.6-20.9,5.6-31C824.1,895,810.1,892.5,800,899.5z M749.6,601.7c-6.4-11.4-10.3-23.2-11.6-35.2c-1.3-12.2-12-21.1-24.5-19.8c-12.3,1.3-21.1,12.3-19.8,24.5c1.9,18,7.6,35.6,17,52.3c4.1,7.3,11.6,11.4,19.5,11.4c3.7,0,7.4-0.9,10.9-2.9C751.8,626,755.6,612.5,749.6,601.7z M299.8,9.9C139.7,9.9,10,140.6,10,301.7c0,237.1,289.8,466,289.8,466s289.8-229,289.8-466C589.5,140.6,459.8,9.9,299.8,9.9z M299.8,411.1c-61.5,0-111.4-49.9-111.4-111.5c0-61.6,49.9-111.5,111.4-111.5c61.6,0,111.4,49.9,111.4,111.5C411.2,361.2,361.3,411.1,299.8,411.1z" style="fill:#666"/></g>
</svg>