<?xml version="1.0" encoding="iso-8859-1"?>
<!-- Generator: Adobe Illustrator 18.0.0, SVG Export Plug-In . SVG Version: 6.00 Build 0)  -->
<!DOCTYPE svg PUBLIC "-//W3C//DTD SVG 1.1//EN" "http://www.w3.org/Graphics/SVG/1.1/DTD/svg11.dtd">
<svg version="1.1" id="Capa_1" xmlns="http://www.w3.org/2000/svg" xmlns:xlink="http://www.w3.org/1999/xlink" x="0px" y="0px"
	 viewBox="0 0 430 430" style="enable-background:new 0 0 430 430;" xml:space="preserve">
<path d="M323.424,128.947c-4.113,0-8.213,0.234-12.277,0.703c-4.899-20.225-15.654-38.646-31.178-53.025
	c-19.752-18.295-45.463-28.369-72.401-28.369c-49.559,0-91.801,33.842-103.422,80.719C46.495,130.268,0,177.568,0,235.523
	c0,58.769,47.81,106.58,106.577,106.58H166v4.641c0,19.299,15.701,35,35,35h28c19.299,0,35-15.701,35-35v-4.641h59.424
	c58.766,0,106.576-47.811,106.576-106.58C430,176.758,382.189,128.947,323.424,128.947z M278.334,278.895
	c-2.584,4.955-7.709,8.063-13.299,8.063H244v62.143c0,8.284-6.717,15-15,15h-28c-8.284,0-15-6.716-15-15v-62.143h-21.036
	c-5.589,0-10.714-3.108-13.299-8.063c-2.585-4.955-2.201-10.936,0.996-15.52l50.036-71.726c2.806-4.021,7.399-6.418,12.304-6.418
	c4.901,0,9.495,2.396,12.302,6.418l50.035,71.727C280.535,267.96,280.92,273.94,278.334,278.895z" fill="#066666"/>
<g>
</g>
<g>
</g>
<g>
</g>
<g>
</g>
<g>
</g>
<g>
</g>
<g>
</g>
<g>
</g>
<g>
</g>
<g>
</g>
<g>
</g>
<g>
</g>
<g>
</g>
<g>
</g>
<g>
</g>
</svg>
