<?xml version="1.0" encoding="UTF-8"?>
<!-- Generator: Adobe Illustrator 16.0.0, SVG Export Plug-In . SVG Version: 6.00 Build 0)  -->
<svg id="Capa_1" width="30" height="17.376" version="1.1" viewBox="0 0 30.000003 17.375775" xml:space="preserve" xmlns="http://www.w3.org/2000/svg" xmlns:cc="http://creativecommons.org/ns#" xmlns:dc="http://purl.org/dc/elements/1.1/" xmlns:rdf="http://www.w3.org/1999/02/22-rdf-syntax-ns#"><metadata id="metadata11"><rdf:RDF><cc:Work rdf:about=""><dc:format>image/svg+xml</dc:format><dc:type rdf:resource="http://purl.org/dc/dcmitype/StillImage"/><dc:title/></cc:Work></rdf:RDF></metadata><g id="g4" transform="matrix(.057484 0 0 .057484 0 -6.3121)"><path id="path2" d="m494.03 228.99-68.72-23.735-39.809-67.593c-13.327-21.001-22.402-27.855-62.358-27.855h-295.28c-15.387 1e-3 -27.866 12.48-27.866 27.856v189.3c0 15.381 12.479 27.865 27.866 27.865h14.788c1.836-30.591 27.152-54.854 58.201-54.854 31.048 0 56.363 24.263 58.202 54.854h200.24c1.106-18.06 10.519-35.368 26.973-45.781 27.237-17.258 63.3-9.176 80.557 18.058 5.473 8.646 8.383 18.179 8.952 27.724h18.255c15.387 0 27.853-12.484 27.853-27.865v-70.103c-1e-3 -15.393-11.413-22.446-27.857-27.867zm-104.57-16.142h-126.98c-1.908 0-3.438-1.529-3.438-3.423v-67.431c0-1.894 1.529-3.423 3.438-3.423h90.94c1.882 0 4.687 0.7 6.074 3.423l33.39 67.426c0 1.898-1.526 3.428-3.419 3.428zm127.52 86.105c0 5.145-4.169 9.315-9.313 9.315h-28.717c-5.144 0-9.313-4.171-9.313-9.315v-20.958c0-5.144 4.17-9.312 9.313-9.312h28.717c5.145 0 9.313 4.169 9.313 9.312zm-416.83 7.222c-29.2 0-52.957 23.762-52.957 52.958 0 29.2 23.756 52.947 52.957 52.947 29.198 0 52.946-23.747 52.946-52.947 0-29.196-23.747-52.958-52.946-52.958zm0 89.102c-19.944 0-36.146-16.215-36.146-36.138 0-19.924 16.211-36.141 36.146-36.141 19.931 0 36.137 16.217 36.137 36.141 0 19.923-16.206 36.138-36.137 36.138zm317.59-89.102c-29.2 0-52.96 23.762-52.96 52.958 0 29.2 23.76 52.947 52.96 52.947 29.197 0 52.953-23.747 52.953-52.947 0-29.196-23.756-52.958-52.953-52.958zm0 89.102c-19.937 0-36.147-16.215-36.147-36.138 0-19.924 16.217-36.141 36.147-36.141 19.938 0 36.141 16.217 36.141 36.141-1e-3 19.923-16.208 36.138-36.141 36.138z"/></g></svg>
