<svg x="0" y="0" width="50" height="50" viewBox="0 0 70 70" xmlns="http://www.w3.org/2000/svg" xmlns:xlink="http://www.w3.org/1999/xlink" xmlns:fi="http://pattern.flaticon.com/"><rect x="0px" y="0px" width="100%" height="100%" opacity="0" fill="#ffffff"/><defs><path d="M301.393,241.631L464.866,424.56H20.332l163.474-182.928l58.801,51.443L301.393,241.631z M462.174,60.651H23.027   l219.579,192.142L462.174,60.651z M324.225,221.67l160.986,180.151V80.792L324.225,221.67z M0,80.792v321.029L160.972,221.64   L0,80.792z" transform="matrix(0.12365753948688507 0 0 0.12365753948688507 7.000000476837158 5.000000953674316)" id="L1_5" fill="#ffeb0d"/></defs><g fi:class="KUsePattern"><pattern id="pattern_L1_5" width="350" height="350" patternUnits="userSpaceOnUse"><use xlink:href="#L1_5" x="-350" y="-350"/><use xlink:href="#L1_5" x="0" y="-350"/><use xlink:href="#L1_5" x="350" y="-350"/><use xlink:href="#L1_5" x="-350" y="0"/><use xlink:href="#L1_5" x="0" y="0"/><use xlink:href="#L1_5" x="350" y="0"/><use xlink:href="#L1_5" x="-350" y="350"/><use xlink:href="#L1_5" x="0" y="350"/><use xlink:href="#L1_5" x="350" y="350"/></pattern><rect x="0" y="0" width="100%" height="100%" fill="url(#pattern_L1_5)"/></g></svg>