<svg xmlns="http://www.w3.org/2000/svg" xmlns:xlink="http://www.w3.org/1999/xlink" xmlns:fi="http://pattern.flaticon.com/" x="0" y="0" viewBox="0 0 70 70"><rect x="0px" y="0px" width="100%" height="100%" opacity="0" fill="#ffffff"/><defs><g transform="matrix(0.12377820909023285 0 0 0.12377820909023285 6 5.999999592039558)" id="L1_0"><path d="M131.012,438.372h85.624v-87.557h51.467v87.557h85.624V46.366H131.012V438.372z M257.993,92.564h51.466v51.467h-51.466    V92.564z M257.993,175.279h51.466v51.467h-51.466V175.279z M257.993,257.992h51.466v51.467h-51.466V257.992z M175.279,92.564    h51.466v51.467h-51.466V92.564z M175.279,175.279h51.466v51.467h-51.466V175.279z M175.279,257.992h51.466v51.467h-51.466V257.992    z"/><path d="M373.719,81.482V358.66h33.065v79.712h77.954V81.482H373.719z M444.437,321.009H397.58v-46.856h46.856V321.009z     M444.437,245.703H397.58v-46.855h46.856V245.703z M444.437,170.398H397.58v-46.855h46.856V170.398z"/><path d="M0,438.372h77.954V358.66h33.065V81.482H0V438.372z M40.302,123.543h46.856v46.855H40.302V123.543z M40.302,198.848    h46.856v46.855H40.302V198.848z M40.302,274.151h46.856v46.855H40.302V274.151z"/></g></defs><g fi:class="KUsePattern"><pattern id="pattern_L1_0" width="350" height="350" patternUnits="userSpaceOnUse"><use xlink:href="#L1_0" x="-350" y="-350"/><use xlink:href="#L1_0" x="0" y="-350"/><use xlink:href="#L1_0" x="350" y="-350"/><use xlink:href="#L1_0" x="-350" y="0"/><use xlink:href="#L1_0" x="0" y="0"/><use xlink:href="#L1_0" x="350" y="0"/><use xlink:href="#L1_0" x="-350" y="350"/><use xlink:href="#L1_0" x="0" y="350"/><use xlink:href="#L1_0" x="350" y="350"/></pattern><rect x="0" y="0" width="100%" height="100%" fill="url(#pattern_L1_0)"/></g></svg>