<svg width="642" height="482" xmlns="http://www.w3.org/2000/svg">
 <!-- Created with Method Draw - http://github.com/duopixel/Method-Draw/ -->

 <g>
  <title>background</title>
  <rect fill="#ffffff" id="canvas_background" height="484" width="644" y="-1" x="-1"/>
  <g display="none" overflow="visible" y="0" x="0" height="100%" width="100%" id="canvasGrid">
   <rect fill="url(#gridpattern)" stroke-width="0" y="5" x="5" height="400" width="580"/>
  </g>
 </g>
 <g>
  <title>Layer 1</title>
  <path stroke="#000" id="svg_1" d="m321.24997,1.465953c-175.352456,0 -317.500001,107.002418 -317.500001,239.000002c0,131.997615 142.147544,239.000033 317.500001,239.000033c175.352456,0 317.500001,-107.002418 317.500001,-239.000033c0,-131.997583 -142.147544,-239.000002 -317.500001,-239.000002zm249.823182,261.857455c0.021844,0.032886 0.087376,0.032886 0.10922,0.065773c-0.48061,3.07507 -1.179661,6.084367 -1.856867,9.110108c-0.32766,-0.19735 -0.742738,-0.411112 -1.02671,-0.592019c-2.250101,-1.479952 -5.548715,-2.104857 -6.946815,-1.891064c-3.42972,0.526214 5.002572,5.015464 5.832687,5.623926c0.196596,0.147989 0.677206,0.493296 1.354413,0.953738c-22.478831,87.351612 -124.714974,153.55596 -247.267265,153.55596c-90.068273,0 -168.995471,-35.848348 -213.559941,-89.472913c2.686981,-0.263091 5.242899,-0.263091 6.116701,-1.249747c1.114129,-1.26619 2.228215,-3.963035 3.888486,-5.443019c1.682073,-1.463541 3.604472,-3.765716 2.774357,-4.801702c-0.852001,-1.052429 2.206371,-5.656812 1.922357,-6.890148c-0.283972,-1.249747 -2.774357,-4.209715 1.398101,-6.692766s8.607086,-6.281686 8.891058,-7.301228c0.26217,-1.035985 3.626316,-5.44305 3.3205,-7.531465c-0.262128,-2.088414 -3.3205,-4.604352 -5.242899,-5.229257c-1.966045,-0.60843 -6.116659,-0.822192 -7.77693,-2.483051c-1.682073,-1.693777 -6.378829,-3.338193 -8.039058,-2.927081c-1.660271,0.411112 -4.456472,0.822224 -6.662843,-0.246648c-2.228215,-1.019542 -5.832687,-2.285764 -7.208943,-3.107956c-1.419945,-0.822224 -5.002572,-1.447097 -6.662843,-1.447097c-1.682073,0 -1.419945,-0.85511 -3.888444,1.660859c-2.490385,2.515969 0,3.354636 -4.456472,2.910638c-4.45643,-0.378226 0.546142,-0.591987 3.080216,-3.107956c2.468499,-2.499526 -0.284014,-3.97951 -3.080216,-3.338193c-2.752513,0.624905 -0.830114,1.891096 -5.2647,2.515969c-4.434628,0.591987 -4.434628,-1.479984 -1.660271,-1.891064s7.755086,-2.285764 7.755086,-3.1244c0,-0.838667 -0.5461,-3.140843 -2.774357,-3.140843s-1.682073,-2.071971 -5.002572,-4.785259c-2.009775,-1.660891 -4.281678,-2.696876 -6.531737,-3.354636c-1.966087,-9.521188 -3.276812,-19.190364 -3.276812,-29.122664c0,-46.767303 22.697313,-89.555129 60.096485,-122.64086c0.524298,-0.328896 1.048597,-0.559101 1.507363,-0.591987c1.834981,-0.148021 6.772021,-0.411112 11.141117,-0.970213c4.412742,-0.559101 9.131342,-2.647515 10.682351,-2.515969c1.507321,0.131546 5.264743,0.131546 4.063238,-0.690646c-1.223349,-0.937326 -2.927265,-2.877752 -5.461339,-2.877752s-0.174752,-3.058595 0.502454,-3.058595c0.655362,0 4.063196,0.41108 3.888444,1.808848c-0.152908,1.397768 1.026753,3.190172 4.39094,2.647515c3.407833,-0.559101 2.883577,-2.663958 2.228215,-3.206616c-0.69905,-0.559101 -1.201505,-1.956869 -1.856867,-2.927081c-0.677206,-0.986656 -0.502454,-2.236403 3.058329,-2.515937c3.538982,-0.263123 8.432334,1.101758 8.25754,-1.118233s0,-4.604352 1.004909,-5.854131c1.02671,-1.233304 3.233081,-2.088414 2.031619,-2.499526c-1.157817,-0.41108 -2.686981,0.559133 -3.888486,-1.529282c-1.179661,-2.088414 1.026753,-3.617728 2.359279,-4.456395c0.436922,-0.246648 1.463675,-0.986656 2.708825,-1.841734c41.091062,-21.903684 91.11687,-34.911054 145.205916,-34.911054c70.189048,0 133.737096,21.755663 179.437538,56.73249c-0.174794,0.361782 -0.218482,0.85511 -0.677206,0.920883c-1.682115,0.213762 -3.626358,1.035985 -3.91033,-0.838667c-0.283972,-1.874621 -0.283972,-5.443019 -2.228215,-3.338161c-1.944243,2.088414 -2.774357,2.088414 -2.774357,3.140843c0,1.035985 1.660229,2.088414 1.114086,3.963035c-0.567944,1.874653 -0.567944,3.140843 0.305858,3.140843c0.786426,0 2.752513,-1.891064 5.221012,-2.318619c2.534073,-0.411112 6.968659,-1.447097 7.252674,0.427555c0.283972,1.891064 3.036485,2.499526 0.283972,3.338161c-2.796201,0.838667 -5.832687,0.427555 -6.400673,-0.838635c-0.546142,-1.266222 -2.490385,-1.266222 -4.434586,-0.213793c-1.922399,1.035985 -6.094857,4.801702 -6.094857,4.801702s-6.684687,2.285764 -7.492958,1.874653c-0.873802,-0.411112 2.206371,-2.713288 4.434586,-3.749273c2.228257,-1.052429 3.888486,-3.354636 3.058372,-3.97951c-0.830114,-0.624874 -1.922399,-4.58794 -1.376257,-5.640369c0.546142,-1.035985 3.036485,-2.499494 0.283972,-3.551923c-2.774357,-1.035985 -4.740444,-2.302208 -6.946815,-2.927081s-4.7186,2.499526 -6.662801,3.354604c-1.944243,0.838667 -1.660271,1.874653 -4.172458,2.088414c-2.490385,0.213793 -4.12877,2.71332 0,4.176828c4.172458,1.463541 5.570559,2.499526 4.45643,3.354636c-1.114129,0.838635 -5.832687,-0.411112 -5.832687,-0.411112s-3.604472,-1.249747 -5.854573,-1.249747c-2.206371,0 -5.002572,-1.035985 -7.208943,-1.249779c-2.228215,-0.213762 -6.684687,-0.213762 -7.755086,0.624874c-1.114129,0.838667 -3.91033,3.338193 -6.116701,2.499526c-2.206371,-0.838635 -2.206371,-1.677302 -5.264743,-0.838635c-3.058329,0.838635 -6.094815,-0.624905 -7.755086,0.624874c-1.682073,1.249747 -0.283972,1.249747 -5.570559,0c-5.2647,-1.249779 -4.12877,0.838635 -9.153186,1.463541s-8.039058,-0.624905 -9.437158,0.624874c-1.398101,1.26619 -3.342344,3.568398 -4.150614,2.088414c-0.830114,-1.447097 2.752513,-3.963067 1.354413,-4.801702c-1.354413,-0.838667 -7.208986,-0.411112 -8.017256,0.213762c-0.851958,0.624874 -0.305816,2.927081 0.240284,3.765716c0.567986,0.822224 1.398101,4.176828 -0.240284,3.551955c-1.682073,-0.624874 -1.398101,-2.729731 -3.080173,-2.499526c-1.660271,0.213793 -3.604472,0.838667 -4.434628,1.266222c-0.830114,0.41108 -4.172458,0.41108 -5.002572,1.249747c-0.80827,0.838667 0.305858,3.140843 -1.114086,3.338161c-1.376257,0.213793 -2.490385,1.052429 -5.548715,-0.41108c-3.058372,-1.463541 -3.058372,-0.624905 -3.888486,-0.19735c-0.830114,0.411112 -4.7186,2.088414 -5.002572,0.19735c-0.284014,-1.874653 0.546142,-2.499526 -1.944243,-3.765748c-2.512229,-1.249747 -0.567986,-1.249747 2.774357,-0.41108c3.3205,0.822192 7.492958,1.233304 13.587815,-0.213793c6.116659,-1.463541 8.628888,-2.088414 6.116659,-2.927049c-2.512187,-0.822224 -5.002572,-1.660891 -8.869172,-2.088414c-3.91033,-0.411112 -9.175073,-0.411112 -15.291731,-2.088414c-6.094857,-1.677334 -7.492958,-2.302208 -9.983343,-2.713288c-2.512187,-0.427555 -17.76023,-2.302208 -24.72889,-1.463541c-6.924971,0.838635 -26.061501,4.604383 -27.197431,5.229257s-2.796201,3.1244 -6.378829,5.229257c-3.604514,2.088414 -10.267315,6.890116 -15.553902,7.728751c-5.2647,0.838667 -11.381401,4.176828 -11.381401,5.015495c0,0.838667 2.206371,3.97951 1.660229,4.604383c-0.546142,0.624874 1.092285,3.765716 4.172458,4.604352c3.036528,0.822224 8.323072,0.624905 8.585242,-0.641317c0.305816,-1.249747 4.45643,-3.963035 4.740402,-2.088414c0.284014,1.891096 3.058372,4.801702 2.490385,6.051481c-0.546142,1.26619 0,2.515969 1.966087,2.302176c1.922399,-0.197318 12.211516,-1.874621 12.211516,-1.874621s3.342344,-1.052429 2.774357,-2.729763c-0.567986,-1.660859 3.626358,-3.963035 4.434628,-4.587908c0.830114,-0.624874 3.888444,-3.140843 0.305816,-3.963067c-3.64816,-0.838635 -6.400673,-1.052429 -2.512187,-3.551955s6.378829,0 11.381401,-3.765716c5.002572,-3.765716 -1.114129,-4.801702 4.172458,-5.015464c5.2647,-0.213793 10.835259,-0.411112 9.699329,0.838635c-1.092285,1.249779 -7.471114,3.97951 -11.097429,5.229257c-3.626316,1.266222 -3.058372,3.551955 -1.660271,4.801702c1.376257,1.249779 1.966087,4.176828 4.456472,3.765748c2.468499,-0.411112 5.548715,-1.874653 8.301228,-1.660891c2.796201,0.19735 8.36676,-0.213762 9.17503,-0.213762c0.851958,0 4.7186,2.927081 2.490385,3.338161c-2.206413,0.411112 -5.002615,0.213793 -9.721173,0.411112c-4.696756,0.213793 -9.961499,0.213793 -9.961499,0.838667c0,0.641317 6.378829,2.088414 4.150614,3.140843c-2.228215,1.035985 -4.434586,-0.213793 -7.230787,-0.427555c-2.774357,-0.19735 -4.434628,2.729731 -5.264743,4.39059c-0.851958,1.677302 1.376257,4.604383 -2.774357,3.551955c-4.172458,-1.035985 -7.230787,-1.035985 -8.323072,-0.624874c-1.114086,0.411112 -4.434586,1.249747 -7.230787,1.874621c-2.752513,0.624905 -1.660229,-1.035985 -5.286587,-1.035985c-3.582628,0 -3.582628,0 -3.582628,0l-2.250059,0.213793c0,0 -2.206371,-1.035985 -2.490385,-2.713288c-0.283972,-1.677334 1.092285,-3.551955 -0.283972,-3.963067c-1.398101,-0.427555 -6.378829,0.197318 -7.208943,1.447097c-0.830157,1.249747 -1.682115,3.551955 -0.567986,4.604383c1.13593,1.035985 4.45643,3.1244 1.398101,2.499494c-3.058372,-0.624874 -6.924971,-0.838635 -9.153186,0.427555c-2.206371,1.249779 -6.094857,3.963067 -6.094857,3.963067s-6.946815,0.411112 -6.946815,1.677302c0,1.26619 0,2.927081 -2.490385,3.140843c-2.512187,0.213762 -5.854531,0.822224 -9.17503,1.249747c-3.342344,0.411112 -3.036485,1.447097 -6.924971,1.677334s-4.45643,1.463509 -0.830114,1.874621c3.604472,0.411112 9.131342,2.088414 9.415357,3.963067c0.305816,1.874621 -0.284014,3.979478 -1.660271,5.854131c-0.939334,1.299077 -6.662801,0.427555 -10.005145,0.427555c-3.3205,0 -9.961457,-0.838667 -12.757658,0c-2.774357,0.838635 -2.228257,5.015464 -1.398101,6.890116c0.851958,1.874621 -0.26217,2.927049 -1.376257,3.551955c-1.114129,0.624874 -1.419945,2.499494 0,3.354604c1.376257,0.838667 2.490343,2.713288 3.626316,2.927049c1.114086,0.213793 4.696756,-0.624874 6.094857,0.411112c1.398101,1.052429 2.774357,3.551955 3.604472,2.927081c0.851958,-0.624874 1.944201,-3.338193 3.342344,-2.729731c1.398101,0.641317 4.718558,-0.19735 7.230787,-0.411112s3.8666,-2.302208 6.378829,-3.354636c2.490385,-1.035954 1.092285,-1.035954 0.283972,-2.302176c-0.830114,-1.249747 2.490385,-2.713288 4.456472,-4.176828c1.922399,-1.463541 5.526871,-0.213762 6.378829,-1.891064c0.830114,-1.677334 1.114129,-4.58794 3.298656,-4.390622c2.250059,0.213793 5.308388,1.249779 7.230787,1.249779c1.944243,0 6.094857,-2.302208 7.252674,-2.71332c1.092242,-0.41108 5.2647,-0.213762 5.832687,1.677334c0.546142,1.874621 5.2647,4.176828 6.378829,4.587908c1.114129,0.411112 8.323072,2.088414 9.459045,2.713288c1.092242,0.624905 2.752513,2.515969 3.320457,4.176828c0.546142,1.677334 2.490385,1.677334 2.796201,0.213793c0.26217,-1.463541 -1.419945,-4.176828 0.546142,-3.97951c1.922399,0.213793 4.172458,-0.427555 4.172458,-0.427555s-5.308388,-2.713288 -7.230787,-3.338161c-1.922399,-0.624874 -5.570559,-1.874621 -7.23083,-3.963035c-1.660229,-2.088414 -5.832687,-2.515969 -5.548715,-4.58794c0.284014,-2.088414 4.172458,-0.838667 6.378871,0.838635c2.228215,1.677334 7.77693,3.963067 9.721173,5.426607c1.922357,1.463541 5.002572,2.088414 5.832687,3.979478c0.851958,1.874653 3.3205,3.963067 4.150614,4.801702c0.830114,0.838667 3.604472,5.44305 4.45643,6.479036c0.830157,1.035985 3.604514,-0.19735 5.002615,-1.035985c1.376214,-0.838667 3.910288,-1.249779 4.172458,-2.927081c0.283972,-1.677302 -3.342344,-2.927049 -4.434628,-3.551955c-1.114086,-0.624874 2.774357,-1.249747 4.172458,-2.088382c1.376257,-0.822224 3.866642,-2.302208 4.980728,-1.035985c1.114129,1.26619 0.567986,6.265211 1.114129,7.103878c0.546142,0.838667 6.094857,2.088414 7.230787,3.140843c1.092285,1.035985 5.832729,1.463541 6.640999,0.838667c0.851958,-0.624905 5.286544,0.427523 6.422517,0.624874c1.070441,0.213762 4.412742,-0.411112 6.640999,-0.822224c2.250059,-0.41108 4.45643,-1.677302 4.172458,1.035985c-0.284014,2.713288 -1.114129,6.890116 -3.91033,8.97853c-2.774357,2.088414 -1.660229,3.140843 -4.412742,3.140843c-1.310725,0 -2.468541,0 -3.407876,0.345339c-0.895689,-1.068872 -2.140839,-1.923982 -3.822954,-1.595086c-3.3205,0.624874 -7.514802,0.624874 -10.267315,3.1244c-2.796201,2.515969 -3.888444,2.713288 -4.45643,1.874653c-0.546142,-0.838667 8.060944,-4.390622 6.924971,-5.44305c-1.092285,-1.035985 -7.755086,-0.624874 -11.381401,-0.624874c-3.626358,0 -6.662843,-1.677302 -9.459045,-2.088414c-2.752513,-0.411112 -6.378829,2.088414 -9.131342,4.176828c-2.796201,2.088414 -4.7186,0.624874 -7.230787,0.624874c-2.512229,0 -7.23083,-2.713288 -7.23083,-2.713288s-4.7186,-1.463541 -6.662801,-1.463541c-1.922399,0 -5.832729,-2.713288 -6.946815,-2.713288c-1.092285,0 -4.150614,-1.891096 -1.922399,-2.729731c2.206371,-0.822224 4.412742,0.838635 2.206371,-3.765716c-2.206371,-4.58794 -7.208943,-3.551955 -9.153186,-2.927081c-1.922399,0.641317 -15.81603,0.411112 -16.930116,0.411112c-1.114129,0 -9.153229,2.088414 -11.643572,2.927049c-2.534073,0.838667 -6.946815,1.891096 -8.060944,2.302208c-1.114086,0.411112 -6.946815,-0.838667 -9.459002,0.213762c-3.298656,1.381325 -6.356985,3.551955 -7.208986,3.551955c-0.830114,0 -3.342301,1.463541 -5.002572,4.604383c-1.682073,3.1244 0.284014,5.837687 -2.796201,6.890116c-3.036485,1.035985 -8.607044,3.354604 -10.813415,5.015464c-2.228257,1.660891 -5.002572,7.531465 -7.755086,10.244752c-2.774357,2.713288 0,5.212814 0.5461,6.890116c0.546142,1.660859 2.490385,4.801702 -0.5461,7.745226c-3.058372,2.927049 -2.774357,4.374147 -4.172458,4.58794c-1.376257,0.213762 1.376257,1.035985 1.922357,3.1244c0.546142,2.104857 -2.490343,4.193272 2.796201,6.067892c5.264743,1.858209 7.755086,3.568398 9.131342,6.035038c1.398101,2.515937 8.344916,6.692766 8.344916,6.692766s5.002615,3.37108 7.514802,4.818177c2.490385,1.463509 3.3205,0.624874 3.866642,-0.822224c0.546142,-1.479984 3.888444,-1.710189 7.755086,-1.710189c3.888444,0 6.662801,0.65776 10.551287,0.230205c3.888486,-0.411112 7.77693,-2.318619 9.17503,-2.729731c1.376257,-0.411112 6.094857,-2.696845 9.677485,-1.035985c3.626316,1.693745 3.080216,3.963067 5.024416,5.459462c1.922399,1.447097 5.242899,0.608462 7.755086,-0.838635c2.490385,-1.479984 1.398101,-0.85511 4.434628,0.411112c3.058329,1.233304 4.45643,2.483051 1.682073,4.39059c-2.796201,1.858177 -1.114086,4.818145 -2.796201,7.728783c-1.660229,2.927049 -1.376257,3.338161 1.682115,4.571465c3.058329,1.249779 8.607044,9.011448 10.267273,10.4914c1.682115,1.447097 -0.5461,5.623926 1.398101,8.139895c1.944243,2.483083 3.888486,4.176828 1.682115,5.443019c-2.250059,1.233336 -6.116701,3.551955 -6.378829,7.728783s1.114086,7.087434 2.228215,8.567418s3.8666,5.44305 5.2647,6.890116c1.398101,1.463541 3.058372,5.015495 3.3205,7.317671c0.284014,2.302208 -0.524298,5.031939 0.851958,6.265242c1.398101,1.249779 2.228257,3.140843 4.7186,4.801702c2.512229,1.693777 3.3205,5.229257 3.3205,5.229257s0.851958,1.463541 1.114129,3.765748c0.262128,2.302176 0.5461,3.749273 3.320457,4.801702c2.752513,1.035985 4.696756,1.249747 6.116701,0.213762c1.376257,-1.035985 8.323072,-1.26619 11.927544,-1.035985c3.604472,0.213793 7.755086,-1.233304 11.381444,-3.1244s8.891016,-6.890116 10.835259,-8.353657c1.944243,-1.479984 6.378829,-4.193272 5.854573,-5.854131c-0.546142,-1.660859 -1.682115,-3.338161 0.524256,-4.176828c2.228215,-0.855078 7.514802,-2.499526 7.77693,-3.765716c0.284014,-1.26619 -1.966045,-6.495447 -2.512187,-7.51499c-0.524298,-1.052429 1.398101,-2.959968 3.604472,-5.031939c2.250059,-2.104857 9.196874,-3.551955 10.289159,-4.39059c1.114086,-0.871553 4.172458,-4.390622 4.740444,-7.120353c0.524256,-2.746174 -1.114129,-6.067892 0,-7.51499c1.092242,-1.479984 0.283972,-2.713288 -2.250101,-4.407065c-2.490343,-1.677302 -1.944201,-6.692766 -2.774357,-7.51499c-0.80827,-0.838635 -0.283972,-5.2457 1.376257,-5.673255c1.660271,-0.378194 5.286587,-4.587908 7.514802,-6.462561c2.228215,-1.874653 8.607086,-7.728783 11.665416,-8.156338c3.036485,-0.41108 7.755086,-3.765716 8.039058,-5.640337c0.284014,-1.891096 8.301228,-8.994973 8.607086,-10.442071c0.283972,-1.479984 3.626316,-6.906559 2.228215,-8.172781c-1.354413,-1.249747 -12.211558,1.891096 -13.587815,2.318651c-1.398101,0.41108 -5.2647,2.088414 -9.742974,1.858177c-4.412784,-0.213762 -2.490385,-2.910606 -2.774357,-4.176828c-0.26217,-1.249747 -4.980771,-6.051449 -6.094857,-6.265242c-1.114129,-0.197318 -4.434628,-2.729731 -5.832729,-5.212814c-1.376257,-2.515937 -3.320457,-5.640337 -5.548715,-7.531433c-2.228215,-1.874653 -3.604472,-6.248799 -5.854531,-9.192324c-2.206371,-2.927049 -4.12877,-6.692766 -6.094857,-9.406053c-0.458724,-0.674235 -0.983022,-1.299109 -1.463633,-1.923982c2.577761,-0.476885 6.313297,-1.348438 6.772063,-0.147989c0.524298,1.447066 3.604472,4.587908 4.150614,6.890116s3.604472,1.463541 3.888444,3.551955c0.305858,2.104857 3.058372,7.120321 4.150614,7.728751c1.135973,0.624874 6.116701,3.97951 6.946815,5.229257c0.830157,1.249779 1.944243,2.927081 2.774357,6.067924c0.830157,3.1244 1.660271,7.301228 3.91033,7.926102c2.228215,0.624874 9.699329,-1.052429 11.097429,-1.677302s10.529443,-3.97951 13.871787,-4.193272c3.342344,-0.19735 3.910288,-1.891096 8.039058,-2.499526c4.172458,-0.624874 7.23083,-2.910638 10.005187,-4.604383c2.774357,-1.660859 6.116701,-5.837687 7.208943,-7.301228c1.135973,-1.447097 3.91033,-2.499526 2.512229,-4.160385c-1.376257,-1.693745 -7.23083,-4.176828 -9.459045,-4.407033c-2.228215,-0.197318 -1.944243,-2.927081 -3.3205,-2.927081s-1.114086,1.447097 -3.888444,2.515969c-2.774357,1.035985 -5.570559,3.1244 -7.514802,2.713288s0.567986,-1.463509 -2.468541,-3.338161s-4.194302,-2.302176 -4.194302,-3.749273c0,-1.463541 -6.072971,-4.193272 -6.640957,-6.281686c-0.567986,-2.088414 4.150614,-5.015495 5.548715,-3.1244c1.376257,1.874621 2.512187,4.801702 6.094857,6.051449c3.604472,1.249779 6.946815,3.354636 8.628888,3.765748c1.660229,0.41108 5.832687,-2.302208 7.208943,-1.874653c1.376257,0.394669 4.172458,4.160385 6.684687,4.801702c2.468499,0.624874 10.813415,0.838667 12.211516,0.838667s7.208986,0.213762 8.323072,-1.035985c1.114129,-1.249779 1.944243,-1.249779 3.342344,-1.249779c1.354413,0 3.866642,3.765748 5.832729,4.176828c1.944201,0.411112 5.548715,0.213793 5.2647,2.943524c-0.262128,2.696845 1.660271,5.015495 3.604472,5.212814c1.966087,0.197318 6.400673,-3.140843 6.400673,-3.140843s0,5.229257 -0.262128,7.120321c-0.305816,1.858209 3.036485,8.781212 3.036485,8.781212s4.150614,6.462593 5.264743,7.926102s5.832687,5.837687 5.832687,7.728783c0,1.891096 0.546142,4.818145 2.250101,4.818145c1.660229,0 3.320457,-3.338161 5.242856,-5.443019c1.987931,-2.071971 2.534073,-5.015495 3.342344,-7.10391c0.830114,-2.088414 0.830114,-5.854131 0.830114,-7.301228c0,-1.479952 1.638427,-2.729731 5.570559,-3.979478c3.888486,-1.249779 6.640999,-4.801702 9.961457,-6.692798c3.342344,-1.891096 3.080216,-5.015464 9.743017,-5.015464c6.662843,0 6.073013,0 7.755128,-1.266222c1.660229,-1.249747 3.298613,-2.088414 4.150614,0.213793c0.830114,2.302176 5.548715,5.640337 6.378829,6.479004c0.830114,0.855078 2.490343,3.140843 2.250059,5.656812c-0.283972,2.499494 0.262128,5.426575 1.638385,5.426575s4.172458,-3.551955 4.172458,-3.551955s6.094857,-3.107956 5.832729,0.213793c-0.305858,3.338161 0.5461,6.890116 0.5461,8.962087c0,0.871522 0.917533,2.21996 1.922399,3.453264c-0.10922,0.970213 -0.087376,1.956869 -0.196596,2.927081c-1.987931,0.394669 -2.009775,3.255945 -0.939334,4.291931zm-154.096974,-87.581817c1.660271,0.822224 2.228257,2.088414 3.3205,3.338161c1.135973,1.249779 3.058329,0.822224 4.434586,1.874653c1.376257,1.052429 -3.888444,2.302176 -1.638385,3.551955c2.206371,1.26619 3.298656,6.265242 3.604472,7.531433c0.284014,1.249779 -6.094815,1.874653 -8.060902,1.677302c-1.944243,-0.213762 -7.733242,-1.677302 -9.721173,-2.088414c-1.944243,-0.427523 -3.036528,-5.640337 -0.546142,-5.443019c2.534073,0.213762 3.080173,-0.411112 5.832687,-2.285733c2.796201,-1.891096 -4.12877,-2.729763 -6.072971,-3.140843c-1.944243,-0.411112 -5.854573,-5.015495 -7.23083,-6.479036c-1.354413,-1.463509 -0.305816,-3.749273 3.080216,-5.443019c1.660229,-0.838667 6.094815,1.035985 8.323072,0c2.206371,-1.035985 4.434586,-2.302176 5.2647,-2.713288c0.851958,-0.411112 6.400673,0.624874 7.208986,1.874621c0.851958,1.249779 4.172458,3.140843 3.080173,3.765748c-1.135973,0.624874 -6.138545,1.249747 -7.77693,0c-1.638427,-1.266222 -5.570559,0.197318 -5.854573,2.499494c-0.305816,2.318651 1.114129,0.641349 2.752513,1.479984zm-76.611565,3.551955c-1.682073,-0.411112 0.546142,-2.927081 2.228257,-3.765716c1.638385,-0.838667 3.582628,-2.927081 5.2647,-5.015495c1.660229,-2.088414 3.888486,-2.302176 5.264743,-2.088414c1.376257,0.213793 4.434586,3.963067 5.2647,5.229257c0.830114,1.249779 3.604472,-0.427555 4.740444,-0.838635c1.092285,-0.411112 2.774357,-1.677334 3.058329,-2.71332s2.774357,-1.677302 5.548715,-1.677302s0.284014,1.677302 -1.660229,2.088414c-1.966087,0.411112 -0.830114,1.266222 2.468541,2.088414c3.342301,0.838667 6.400673,3.140843 10.026989,4.58794c3.604472,1.463541 4.150614,4.39059 1.922399,4.801702c-2.206371,0.411112 -8.869214,0.838667 -11.381444,0.624874c-2.490343,-0.213762 -5.548715,-2.088414 -9.153186,-2.515969c-3.604472,-0.41108 -8.060902,-0.213762 -9.459002,1.266222s-6.378871,0.822192 -8.62893,0.822192c-2.228215,0 -4.980728,2.088414 -5.526871,1.266222c0.021844,0.016443 1.682115,-3.73283 0.021844,-4.160385zm9.437201,-46.405553c1.376257,-2.927049 9.153186,0.624905 7.755086,2.088414c-1.376257,1.479984 -8.69442,-0.098659 -7.755086,-2.088414zm10.813415,150.069778c1.376257,1.677334 -3.058329,7.087466 -5.548715,6.692798c-2.468499,-0.443998 -1.660229,-5.229257 -0.830114,-6.281686c0.830114,-1.052429 5.657935,-1.31552 6.378829,-0.411112zm-100.772468,-97.185221c0.5461,-0.838635 -0.852001,-2.515969 -2.774357,-0.213762c-0.655362,0.805749 2.228215,1.052429 2.774357,0.213762zm166.548774,-76.284636c3.080173,1.249747 7.405539,1.759518 9.459002,0.213762c1.660271,-1.249747 0.284014,-3.354604 -1.092242,-3.551955c-1.398101,-0.213762 -2.271903,-1.891064 1.354413,-3.338161c3.604472,-1.463541 7.492958,-3.354604 11.665416,-3.765716c4.150614,-0.411112 13.587772,-0.624874 16.908272,0c3.3205,0.641317 8.344916,-2.729731 9.721173,-4.176828s-4.434628,-2.499526 -6.094857,-0.838667c-1.682073,1.677334 -9.699329,1.249779 -11.381401,0.838667c-1.660271,-0.411112 -14.985915,1.677302 -17.738429,1.677302c-2.796201,0 -3.910288,2.499526 -7.77693,3.765716c-3.91033,1.249779 -9.17503,3.140843 -11.119273,3.765748c-1.922399,0.624874 -3.8666,3.1244 -2.206371,3.551923c1.660229,0.411112 5.2647,0.60843 8.301228,1.858209zm-145.730172,76.284636c1.398101,-1.463541 -1.114129,-3.568398 -2.490385,-3.568398c-2.621449,0 -3.888486,3.140843 -2.250059,4.176828c1.682073,1.068872 3.342344,0.85511 4.740444,-0.60843zm12.49553,5.640369c1.398101,0.411112 2.490343,1.677302 3.604472,1.874653c1.13593,0.213762 4.740444,0 3.64816,-2.088414s-3.64816,-2.088414 -4.45643,-2.088414c-0.830157,0 -4.434628,-0.624905 -5.832729,0c-1.02671,0.46041 1.638427,1.891064 3.036528,2.302176zm-74.405194,-33.858625c2.206371,0.213793 4.740444,-1.035985 6.662801,-1.660859c1.922399,-0.624874 4.7186,-1.874621 4.7186,-3.765716c0,-1.874621 -0.546142,-3.551955 -1.682073,-4.39059c-1.114129,-0.838667 -3.058372,-1.052429 -4.7186,-0.838667c-2.512229,0.328896 -2.774357,2.302208 -4.434628,2.302208c-1.660229,0 -3.604472,0.41108 -3.058329,1.874621s1.682115,2.499526 0,3.1244c-1.660229,0.641317 0.262128,3.157286 2.512229,3.354604zm13.609616,-8.97853c2.774357,0.838667 8.607086,1.677334 6.378829,2.515969c-2.228215,0.838667 -6.116659,3.1244 -6.662801,4.390622s4.7186,2.515937 4.7186,2.515937s-1.682115,1.463541 -0.284014,1.874653c1.376257,0.411112 2.228215,-1.463541 4.434628,-1.463541c2.206371,0 6.640957,1.035985 8.869172,1.035985c2.250101,0 5.832729,-2.302176 5.548715,-3.765716c-0.283972,-1.463541 -3.058329,-3.765716 -5.548715,-4.604383c-2.468499,-0.838635 -5.2647,-4.604383 -6.924971,-5.443019c-1.660229,-0.838667 1.660271,-2.927081 -0.283972,-4.390622c-1.966087,-1.463509 -3.342344,-1.249747 -5.570559,-2.302176c-2.228215,-1.035985 -4.172458,0.213762 -5.548715,1.463541c-1.376257,1.249747 -3.058329,-0.213793 -4.740444,0.197318c-2.228215,0.575544 -1.376257,2.729731 -0.262128,3.765716c1.13593,1.068872 3.102017,3.37108 5.876375,4.209715zm279.576531,111.590358c-1.813179,0.60843 -3.342344,7.728783 0,8.567418c3.320457,0.85511 5.2647,-3.321718 4.172458,-4.39059c-1.135973,-1.019542 -1.682115,-5.015495 -4.172458,-4.176828zm-100.816199,53.706749c-3.473408,-0.739976 -3.866642,2.729763 -6.640999,5.031939c-2.796201,2.318619 -5.832687,4.176828 -6.924971,3.963067c-1.13593,-0.213793 -7.230787,1.463509 -5.286544,4.587908c1.944243,3.140843 1.660229,6.281686 -0.284014,7.761669c-1.944201,1.447097 1.660271,5.623926 1.135973,7.926102c-0.567986,2.285764 0.80827,3.765716 4.696756,3.765716s5.286544,-1.052429 6.946815,-3.765716c1.660229,-2.729731 1.922399,-5.443019 3.582628,-7.728783c1.682073,-2.318619 3.080173,-7.136764 3.91033,-8.386543c0.830114,-1.233304 2.490343,-5.196339 2.228215,-7.51499c-0.305858,-2.269289 -1.398101,-5.229257 -3.364188,-5.640369zm-212.402124,-191.772257c-1.507321,-0.986656 -5.002572,-1.677302 -6.684687,-1.80888c-1.660229,-0.131546 -3.320457,0.986656 -7.012347,0.986656c-3.670004,0 -6.094815,1.101758 -7.580334,0c-1.485477,-1.118201 -7.624022,-1.677302 -8.191966,-0.986656c-0.742738,0.937326 -2.206413,0.970213 -0.742738,2.927081c1.507321,1.940425 2.621407,3.058627 3.910288,2.927081s5.723467,-0.279566 6.291453,0.838635c0.546142,1.118201 2.053463,2.088414 5.177367,1.397768c3.167549,-0.690646 5.745311,-1.118201 6.466205,-1.956869c0.720894,-0.838635 5.745311,-0.970213 5.745311,-0.970213s4.085082,-2.384392 2.621449,-3.354604z" stroke-width="1.5" fill="#0a0808"/>
  <polyline stroke-linecap="round" id="svg_6" points="328.5,197.5 328.5,197.5 " stroke-width="1.5" stroke="#000" fill="none"/>
 </g>
</svg>