<?xml version="1.0" standalone="no"?>
<!DOCTYPE svg PUBLIC "-//W3C//DTD SVG 20010904//EN"
 "http://www.w3.org/TR/2001/REC-SVG-20010904/DTD/svg10.dtd">
<svg version="1.0" xmlns="http://www.w3.org/2000/svg"
 width="184.000000pt" height="164.000000pt" viewBox="0 0 184.000000 164.000000"
 preserveAspectRatio="xMidYMid meet">

<g transform="translate(0.000000,164.000000) scale(0.100000,-0.100000)"
fill="#000000" stroke="none">
<path d="M417 1481 l-99 -76 6 -195 c6 -174 16 -382 20 -387 1 -1 40 163 89
364 48 202 86 367 84 368 -1 1 -46 -32 -100 -74z"/>
<path d="M1430 1537 c0 -29 92 -722 96 -726 3 -3 34 10 71 28 36 17 63 34 60
37 -3 3 -32 -9 -66 -25 -48 -25 -61 -28 -61 -16 0 9 31 30 75 52 41 21 75 41
75 45 0 5 -32 -8 -71 -28 -39 -19 -73 -33 -76 -30 -11 11 12 28 89 67 44 22
78 43 75 45 -3 3 -37 -11 -76 -30 -79 -41 -81 -41 -81 -23 0 7 41 33 90 57 50
24 90 48 90 53 0 5 -39 -12 -86 -37 -97 -52 -94 -51 -94 -33 0 6 43 34 95 60
52 26 97 53 101 58 3 6 -35 -10 -85 -35 -101 -51 -101 -51 -101 -33 0 7 45 35
100 62 55 27 100 53 100 57 0 5 -45 -14 -100 -42 -73 -37 -100 -46 -100 -35 0
9 37 33 91 61 50 25 89 48 86 50 -3 3 -41 -13 -86 -35 -61 -31 -81 -37 -81
-26 0 8 30 30 71 51 39 19 69 38 66 40 -3 3 -33 -9 -67 -26 -34 -17 -64 -29
-67 -26 -10 10 16 32 67 56 27 13 48 25 46 27 -2 3 -27 -7 -55 -21 -40 -21
-51 -23 -51 -11 0 8 18 24 41 35 23 12 39 24 36 26 -3 3 -19 -2 -36 -10 -37
-19 -41 -20 -41 -3 0 7 15 21 33 30 l32 17 -32 -6 c-27 -5 -32 -3 -27 10 3 9
10 16 15 16 5 0 9 5 9 11 0 5 -4 7 -10 4 -5 -3 -10 1 -10 10 0 10 -30 56 -67
104 -85 110 -83 108 -83 88z"/>
<path d="M1143 1480 c-6 -36 -32 -174 -58 -307 l-46 -243 58 -75 58 -76 3 191
c1 104 1 277 0 382 -3 183 -4 190 -15 128z"/>
<path d="M765 1520 c-8 -13 5 -13 25 0 13 8 13 10 -2 10 -9 0 -20 -4 -23 -10z"/>
<path d="M795 1492 c-11 -2 -24 -8 -30 -14 -9 -9 43 -1 54 8 8 7 -4 10 -24 6z"/>
<path d="M795 1453 c-37 -9 -41 -24 -5 -17 44 8 75 24 45 23 -11 -1 -29 -3
-40 -6z"/>
<path d="M820 1418 c-25 -5 -49 -14 -55 -20 -7 -7 -4 -8 10 -5 11 3 37 9 58
13 20 3 40 10 43 15 6 10 4 10 -56 -3z"/>
<path d="M820 1378 c-25 -5 -49 -14 -55 -20 -11 -11 33 -4 100 17 47 15 19 17
-45 3z"/>
<path d="M845 1344 c-74 -18 -89 -23 -83 -29 7 -7 150 26 163 37 12 11 -7 9
-80 -8z"/>
<path d="M255 1310 c-3 -5 -2 -10 4 -10 5 0 13 5 16 10 3 6 2 10 -4 10 -5 0
-13 -4 -16 -10z"/>
<path d="M838 1301 c-55 -13 -98 -31 -75 -31 12 0 182 42 186 46 9 8 -46 1
-111 -15z"/>
<path d="M863 1267 c-50 -12 -95 -25 -99 -29 -10 -11 -7 -11 98 13 90 21 143
39 108 38 -8 0 -56 -10 -107 -22z"/>
<path d="M255 1260 c-10 -11 -13 -20 -8 -20 13 0 38 29 31 35 -3 3 -13 -4 -23
-15z"/>
<path d="M883 1231 c-61 -14 -115 -29 -119 -34 -4 -4 -5 -7 -2 -7 13 0 233 52
237 56 12 12 -14 8 -116 -15z"/>
<path d="M251 1209 c-13 -11 -22 -21 -20 -24 3 -2 18 7 34 20 17 13 26 24 20
24 -5 0 -21 -9 -34 -20z"/>
<path d="M888 1192 c-64 -15 -120 -31 -125 -36 -4 -5 3 -6 17 -3 14 3 70 16
125 28 95 20 152 39 115 38 -8 -1 -68 -13 -132 -27z"/>
<path d="M908 1156 c-75 -17 -140 -35 -145 -40 -5 -5 1 -7 14 -3 13 3 79 17
148 33 69 15 125 31 125 36 0 4 -1 7 -2 7 -2 -1 -65 -15 -140 -33z"/>
<path d="M245 1155 c-16 -13 -25 -24 -20 -25 6 0 24 11 40 25 17 13 26 24 20
25 -5 0 -23 -11 -40 -25z"/>
<path d="M245 1105 c-22 -19 -35 -34 -30 -34 13 0 80 57 74 63 -2 3 -22 -11
-44 -29z"/>
<path d="M888 1112 c-64 -15 -120 -30 -124 -34 -4 -5 -5 -8 -2 -8 9 0 272 60
283 64 32 13 -56 0 -157 -22z"/>
<path d="M920 1079 c-124 -29 -163 -40 -157 -45 5 -5 268 53 276 61 8 9 -34 3
-119 -16z"/>
<path d="M241 1054 c-24 -18 -40 -34 -35 -34 13 0 84 52 84 61 0 12 1 12 -49
-27z"/>
<path d="M905 1035 c-146 -35 -148 -36 -142 -41 6 -6 236 45 257 57 25 14 -4
10 -115 -16z"/>
<path d="M237 1003 c-26 -19 -46 -38 -43 -40 5 -5 106 65 106 73 0 10 -19 1
-63 -33z"/>
<path d="M908 995 c-143 -33 -151 -36 -145 -41 6 -7 240 46 252 57 12 12 9 11
-107 -16z"/>
<path d="M232 949 c-29 -23 -51 -43 -48 -46 3 -3 27 12 53 33 68 54 68 54 58
54 -6 0 -34 -19 -63 -41z"/>
<path d="M908 955 c-144 -34 -151 -36 -145 -41 7 -7 239 46 252 57 12 12 9 11
-107 -16z"/>
<path d="M230 898 c-36 -28 -57 -48 -48 -45 24 9 118 80 118 89 0 12 1 12 -70
-44z"/>
<path d="M867 906 c-93 -22 -151 -45 -77 -31 81 15 223 53 200 53 -14 0 -69
-10 -123 -22z"/>
<path d="M227 848 c-37 -28 -66 -53 -63 -55 6 -7 136 88 136 99 0 11 2 12 -73
-44z"/>
<path d="M887 870 c-122 -29 -140 -36 -116 -44 26 -9 369 -83 369 -79 0 8
-123 153 -129 152 -3 -1 -59 -14 -124 -29z"/>
<path d="M222 794 c-41 -31 -71 -58 -69 -61 3 -2 36 19 74 48 87 68 89 69 78
69 -6 0 -43 -25 -83 -56z"/>
<path d="M1587 804 c-27 -14 -55 -23 -62 -20 -11 4 -228 -297 -360 -498 -18
-28 -7 -24 150 58 170 88 200 106 177 106 -20 0 -13 28 8 35 11 3 20 11 20 16
0 6 -8 6 -20 -1 -29 -16 -24 -3 13 32 22 20 25 27 10 19 -28 -14 -33 -14 -33
2 0 7 16 21 36 31 20 9 34 19 31 22 -3 3 -14 1 -25 -5 -27 -14 -32 -14 -32 2
0 8 18 22 40 32 22 10 40 22 40 27 0 4 -18 -1 -40 -12 -22 -11 -40 -17 -40
-13 0 17 17 31 58 52 24 12 42 25 39 27 -3 3 -23 -4 -46 -16 -34 -17 -41 -18
-41 -5 0 9 24 27 55 42 30 15 55 31 55 35 0 5 -22 -3 -50 -17 -36 -18 -50 -22
-50 -12 0 8 23 24 50 37 28 13 56 30 62 37 14 17 11 16 -45 -13z"/>
<path d="M240 759 c-71 -55 -107 -88 -79 -73 34 19 149 108 149 116 0 12 1 12
-70 -43z"/>
<path d="M350 769 c0 -13 37 -240 45 -275 4 -18 24 -27 126 -53 66 -18 123
-30 125 -28 4 4 -46 66 -248 310 -26 32 -48 53 -48 46z"/>
<path d="M217 693 c-48 -36 -85 -68 -83 -71 3 -3 40 22 83 54 42 32 82 62 87
66 6 4 8 9 6 12 -3 2 -45 -25 -93 -61z"/>
<path d="M222 647 c-51 -38 -90 -72 -87 -75 2 -3 42 24 87 58 100 76 103 79
97 84 -2 2 -46 -28 -97 -67z"/>
<path d="M242 613 c-40 -31 -70 -58 -68 -60 4 -5 156 106 156 113 0 11 -22 -2
-88 -53z"/>
<path d="M267 583 c-32 -25 -56 -47 -54 -50 5 -4 127 86 127 94 0 10 -21 -3
-73 -44z"/>
<path d="M290 549 c-25 -22 -36 -36 -25 -30 28 14 92 70 80 70 -5 0 -30 -18
-55 -40z"/>
<path d="M305 515 c-16 -14 -25 -25 -18 -25 7 0 25 11 40 25 36 32 17 32 -22
0z"/>
<path d="M334 485 c-10 -8 -14 -15 -8 -15 6 0 17 7 24 15 16 19 9 19 -16 0z"/>
<path d="M430 417 c11 -11 466 -270 475 -270 6 0 60 24 120 53 l110 53 -50 12
c-27 7 -176 42 -330 79 -154 37 -291 69 -305 73 -14 3 -23 3 -20 0z"/>
</g>
</svg>
