<?xml version="1.0" encoding="utf-8"?>
<!-- Svg Vector Icons : http://www.onlinewebfonts.com/icon -->
<!DOCTYPE svg PUBLIC "-//W3C//DTD SVG 1.1//EN" "http://www.w3.org/Graphics/SVG/1.1/DTD/svg11.dtd">
<svg version="1.1" xmlns="http://www.w3.org/2000/svg" xmlns:xlink="http://www.w3.org/1999/xlink" x="0px" y="0px" viewBox="0 0 1000 1000" enable-background="new 0 0 1000 1000" xml:space="preserve">
<metadata> Svg Vector Icons : http://www.onlinewebfonts.com/icon </metadata>
<g><g transform="translate(0.000000,511.000000) scale(0.100000,-0.100000)"><path d="M266.9,3894.7c-39.6-20.9-93.9-68.8-118.9-108.5l-48-70.9l4.2-3615.2l6.3-3613.1l52.1-56.3c29.2-31.3,87.6-75.1,129.3-96c75.1-39.6,198.2-39.6,4725-39.6c4382.9,0,4652,2.1,4720.8,37.6c112.7,56.3,173.1,160.6,160.6,281.6c-10.4,116.8-60.5,191.9-160.6,246.2c-68.8,37.6-231.6,39.6-4551.9,39.6H705l-4.2,3408.7c-6.3,3406.6-6.3,3410.8-50.1,3467.1C546.4,3915.6,398.3,3961.5,266.9,3894.7z"/><path d="M7897.8,1806.6l-1180.7-661.3l-661.3-834.4c-365.1-458.9-684.2-857.4-709.3-884.5l-48-50.1L4153.3-252.4C3525.4-50.1,3001.8,118.9,2993.4,121c-14.6,2.1-1787.8-2730.7-1787.8-2753.6c0-4.2,1779.4-8.3,3953.1-8.3h3953.2V-85.5c0,1406-6.3,2555.5-14.6,2555.5C9086.9,2467.8,8548.7,2171.6,7897.8,1806.6z"/></g></g>
</svg>